# xmcd CD database file
#
# Track frame offsets:
#	150
#	19648
#	32535
#	50262
#	64345
#	76366
#	89537
#	104192
#	120730
#	133965
#	150062
#	162727
#	178709
#	194954
#	207915
#	219374
#	238153
#
# Disc length: 3402 seconds
#
# Revision: 0
# Processed by: cddbd v1.5.2PL0 Copyright (c) Steve Scherf et al.
# Submitted via: CDex 1.51
#
DISCID=f80d4811
DTITLE=Various Artist - THE ULTIMATE COUNTRY COLLECTION CD01
DYEAR=1900
DGENRE=Country
TTITLE0=Kenny Rogers - Coward Of The County 
TTITLE1=Willie Nelson - Crazy
TTITLE2=Marie Osmond and Dan Seals - Meet Me In Montana
TTITLE3=Don Williams - Come Early Morning
TTITLE4=Glen Campbell - Galveston 
TTITLE5=Hank Williams - Jambalaya
TTITLE6=Dr Hook - A Little Bit More U
TTITLE7=Anne Murray - You Needed Me
TTITLE8=Lynn Anderson - Top Of The World
TTITLE9=Lobo - Dont Expect Me To Be Your Friend
TTITLE10=Jim Reeves - Bimbo
TTITLE11=Joe South - Games People Play
TTITLE12=Billie Jo Spears - Blanket On The Ground
TTITLE13=Bobbie Gentry - I'll Never Fall In Love Again
TTITLE14=Crystal Gayle - Dont It Make My Brown Eyes Blue
TTITLE15=Juice Newton - Angel Of The Morning
TTITLE16=Bonnie Raitt - Something To Talk About 
EXTD=
EXTT0=
EXTT1=
EXTT2=
EXTT3=
EXTT4=
EXTT5=
EXTT6=
EXTT7=
EXTT8=
EXTT9=
EXTT10=
EXTT11=
EXTT12=
EXTT13=
EXTT14=
EXTT15=
EXTT16=
PLAYORDER=
